<svg xmlns="http://www.w3.org/2000/svg" width="179" height="48" fill="none" viewBox="0 0 179 48">
  <path fill="#099250" d="M25.8 35.787c-3.5-1.3-7.1-1.5-10.4-.6-2.3.6-4.5 1.8-6.5 3.3l-1.4 1.2-.4.4.9.8c.1 0 .1.1.2.2.2.2.4.3.7.5l.6.4.6-.5c.1-.1.3-.3.5-.4 1.8-1.5 3.8-2.5 5.9-3 2.7-.7 5.6-.6 8.5.5 2.4.9 7.3 2 13.2-.5l.2-.1.3-.3c0-.1.1-.1.2-.2.5-.6 1-1.2 1.4-1.9l2-3.1-3.2 1.8c-4.7 2.6-9 3.1-13.3 1.5ZM12.1 24.988c2.7-.7 5.6-.6 8.5.5 3.2 1.2 11.4 2.9 20.6-5.4l1.5-1.5.1-.1.4-.4-.2-.5c-.1-.4-.3-.9-.5-1.4l-.5-1.4-1 1c-.1.2-.3.3-.5.5-4.4 4.5-11.2 9.1-19 6.3-3.5-1.3-7.1-1.5-10.4-.6-3.2.9-6 2.6-8.6 5v-.1l-1.5 1.6c0 .1-.1.1-.2.2l-.3.3.1.4c.1.5.3 1 .4 1.5l.6 1.6 1-1.3c.1-.2.3-.3.4-.5 2.1-1.9 5-4.6 9.1-5.7Z"/>
  <path fill="#099250" d="M2.4 23.187c2.3-2.4 4.9-3.9 7.7-4.7 2.7-.7 5.6-.6 8.5.5 9 3.3 16.8-2.1 20.2-5l1.3-1.3.5-.4-.4-.6c-.3-.3-.5-.7-.8-1.1l-.6-.8-.7.7-.4.4c-4.2 4-10.7 8.1-18.1 5.3-3.5-1.3-7.1-1.5-10.4-.6-2.1.6-4.1 1.6-6.1 2.9l-2.1 1.7-.5.5-.2.2v.3c-.1.7-.1 1.4-.2 2l-.1 2.5 1.7-1.8c.2-.2.4-.5.7-.7ZM28.7 42.587l-.2.6.2-.6c-.3-.1-.5-.2-.8-.3-3.5-1.3-7.1-1.5-10.4-.6-.7.2-1.4.4-2.1.7l-2.4 1.1-.6.3 2 .7 1.8.6.3.1.3-.1c.3-.1.6-.3.9-.3.2 0 .4-.1.6-.2 2.4-.6 5-.6 7.8.3.3.1.5.2.8.3l.5.2.3-.1c.7-.2 1.5-.4 2.1-.7l2.8-1-2.9-.7c-.3-.1-.7-.2-1-.3ZM44 21.887l-1.5 1.5-.6.6c-4.1 3.9-10.7 8.1-18.1 5.3-3.5-1.3-7.1-1.5-10.4-.6-3.1.9-5.9 2.5-8.4 4.9l-1.3 1.4-.4.5.4.6c.3.4.5.7.7 1.1l.6.9.7-.9.4-.4c2.4-2.6 5-4.2 8-5 2.7-.7 5.6-.6 8.5.5 2.5.9 5.1 1.2 7.7.9 4.6-.5 9.2-3.1 12.6-6 .2-.2.4-.3.6-.5l.3-.3v-.3c0-.6.1-1.3.1-1.9l.1-2.3Z"/>
  <path fill="#099250" d="m6 12.688-.3-.6.3.6c.6-.3 1.3-.5 1.9-.7 2.7-.7 5.6-.6 8.5.5 1.9.7 3.8 1 5.9 1 4.2 0 8.4-1.5 12.3-4.4l1.5-1.2.5-.4-.9-.7c-.3-.3-.7-.6-1.1-.8l-.6-.4-.5.4c-.2.1-.3.3-.5.4-5.3 4-10.6 5.1-15.6 3.2-3.6-1.3-7.2-1.6-10.8-.5-.3.1-.6.2-1 .3l-.2.1-.3.3c0 .1-.1.1-.2.2-.4.6-.9 1.1-1.3 1.7l-1.9 2.9 3.1-1.6c.5 0 .9-.2 1.2-.3ZM14.2 5.887l.3.1c1.3.5 3.3 1 5.8 1 2.6 0 5.1-.6 7.6-1.6l3.1-1.5-2.1-.7c-.6-.2-1.2-.4-1.9-.5h-.3l-.3.1c-.3.1-.6.3-.9.4-3 1.1-6 1.3-8.9.5l-.9-.3-.3-.1-.3.1c-.6.2-1.2.4-1.8.7l-2.3 1 2.4.7c.2-.1.5 0 .8.1Z"/>
  <path fill="#101828" d="M61.28 33.91h-4.614l7.03-20.364h5.548l7.02 20.363H71.65l-5.1-15.71h-.16l-5.11 15.71Zm-.289-8.005H71.89v3.36H60.991v-3.36ZM82.871 13.546v20.363h-4.236V13.546h4.236ZM94.388 18.637v3.181H85.19v-3.181h9.198Zm-7.11-3.66h4.236v14.239c0 .391.06.696.18.915.119.212.284.361.496.447.22.086.471.13.756.13.2 0 .398-.017.597-.05l.457-.09.666 3.152c-.212.067-.51.143-.894.229-.385.093-.852.15-1.403.169-1.02.04-1.915-.096-2.684-.408-.763-.311-1.356-.795-1.78-1.451-.424-.657-.633-1.485-.626-2.486V14.977ZM102.728 32.806v-14.08h3.559v14.08h-3.559Zm-5.26-5.26v-3.56h14.079v3.56h-14.08ZM126.84 19.402c-.08-.802-.421-1.425-1.024-1.87-.603-.443-1.422-.665-2.456-.665-.703 0-1.296.099-1.78.298-.484.192-.855.46-1.114.805a1.944 1.944 0 0 0-.377 1.174c-.014.364.063.682.228.954.173.272.408.507.706.706.299.192.643.361 1.034.507.391.14.809.259 1.253.358l1.83.438a12.93 12.93 0 0 1 2.446.795c.742.331 1.385.74 1.929 1.223a5.101 5.101 0 0 1 1.263 1.71c.304.657.46 1.409.467 2.257-.007 1.247-.325 2.327-.955 3.242-.623.908-1.524 1.614-2.704 2.118-1.174.497-2.589.745-4.246.745-1.644 0-3.076-.251-4.295-.755-1.214-.504-2.161-1.25-2.844-2.237-.676-.995-1.031-2.224-1.064-3.69h4.166c.046.683.242 1.254.587 1.711.351.45.818.792 1.402 1.024.59.226 1.256.338 1.998.338.729 0 1.363-.106 1.899-.318.544-.212.965-.507 1.263-.885a2.04 2.04 0 0 0 .448-1.303c0-.457-.136-.841-.408-1.153-.265-.311-.656-.577-1.173-.795a11.95 11.95 0 0 0-1.88-.597l-2.217-.557c-1.717-.417-3.072-1.07-4.067-1.959-.994-.888-1.488-2.084-1.481-3.59-.007-1.232.321-2.31.984-3.23.67-.922 1.588-1.641 2.754-2.158 1.167-.517 2.493-.776 3.978-.776 1.511 0 2.83.259 3.957.776 1.134.517 2.015 1.236 2.645 2.157.63.922.955 1.989.974 3.202h-4.126ZM138.297 25.08v8.83h-4.236V13.545h4.117v7.785h.179c.344-.901.901-1.607 1.67-2.118.769-.517 1.734-.775 2.894-.775 1.06 0 1.985.232 2.774.696.795.457 1.412 1.117 1.849 1.978.444.855.663 1.88.656 3.073v9.724h-4.235V24.94c.006-.94-.232-1.673-.716-2.197-.478-.524-1.147-.785-2.009-.785-.576 0-1.087.122-1.531.367a2.606 2.606 0 0 0-1.034 1.074c-.245.464-.371 1.024-.378 1.68ZM151.534 33.91V18.636h4.236v15.272h-4.236Zm2.128-17.242c-.63 0-1.17-.21-1.621-.627-.444-.424-.666-.931-.666-1.521 0-.583.222-1.084.666-1.501a2.282 2.282 0 0 1 1.621-.637 2.25 2.25 0 0 1 1.611.637c.45.417.676.918.676 1.501 0 .59-.226 1.097-.676 1.521a2.27 2.27 0 0 1-1.611.627ZM168.89 18.637v3.181h-10.94v-3.181h10.94Zm-8.783 15.272V17.533c0-1.107.216-2.025.647-2.755a4.148 4.148 0 0 1 1.79-1.64c.755-.365 1.614-.547 2.575-.547.649 0 1.243.05 1.78.15.543.099.948.188 1.213.268l-.756 3.181a5.318 5.318 0 0 0-.616-.149 3.85 3.85 0 0 0-.736-.07c-.623 0-1.058.146-1.303.438-.245.285-.368.686-.368 1.203V33.91h-4.226ZM178.087 18.637v3.181h-9.197v-3.181h9.197Zm-7.109-3.66h4.236v14.239c0 .391.059.696.179.915a.985.985 0 0 0 .497.447c.218.086.47.13.755.13.199 0 .398-.017.597-.05l.457-.09.667 3.152c-.213.067-.511.143-.895.229-.385.093-.852.15-1.402.169-1.021.04-1.916-.096-2.685-.408-.762-.311-1.356-.795-1.78-1.451-.424-.657-.633-1.485-.626-2.486V14.977Z"/>
</svg>
