<svg xmlns="http://www.w3.org/2000/svg" version="1.1" xmlns:xlink="http://www.w3.org/1999/xlink" width="1000" height="1000"><g clip-path="url(#SvgjsClipPath1270)"><rect width="1000" height="1000" fill="#ffffff"></rect><g transform="matrix(18.181818181818183,0,0,18.181818181818183,99.99999999999994,99.99999999999994)"><svg xmlns="http://www.w3.org/2000/svg" version="1.1" xmlns:xlink="http://www.w3.org/1999/xlink" width="44" height="44"><svg xmlns="http://www.w3.org/2000/svg" fill="none" viewBox="0 0 44 44">
  <path fill="#099250" d="M25.8 33.787c-3.5-1.3-7.1-1.5-10.4-.6-2.3.6-4.5 1.8-6.5 3.3l-1.4 1.2-.4.4.9.8c.1 0 .1.1.2.2.2.2.4.3.7.5l.6.4.6-.5c.1-.1.3-.3.5-.4 1.8-1.5 3.8-2.5 5.9-3 2.7-.7 5.6-.6 8.5.5 2.4.9 7.3 2 13.2-.5l.2-.1.3-.3c0-.1.1-.1.2-.2.5-.6 1-1.2 1.4-1.9l2-3.1-3.2 1.8c-4.7 2.6-9 3.1-13.3 1.5ZM12.1 22.988c2.7-.7 5.6-.6 8.5.5 3.2 1.2 11.4 2.9 20.6-5.4l1.5-1.5.1-.1.4-.4-.2-.5c-.1-.4-.3-.9-.5-1.4l-.5-1.4-1 1c-.1.2-.3.3-.5.5-4.4 4.5-11.2 9.1-19 6.3-3.5-1.3-7.1-1.5-10.4-.6-3.2.9-6 2.6-8.6 5v-.1l-1.5 1.6c0 .1-.1.1-.2.2l-.3.3.1.4c.1.5.3 1 .4 1.5l.6 1.6 1-1.3c.1-.2.3-.3.4-.5 2.1-1.9 5-4.6 9.1-5.7Z"></path>
  <path fill="#099250" d="M2.4 21.187c2.3-2.4 4.9-3.9 7.7-4.7 2.7-.7 5.6-.6 8.5.5 9 3.3 16.8-2.1 20.2-5l1.3-1.3.5-.4-.4-.6c-.3-.3-.5-.7-.8-1.1l-.6-.8-.7.7-.4.4c-4.2 4-10.7 8.1-18.1 5.3-3.5-1.3-7.1-1.5-10.4-.6-2.1.6-4.1 1.6-6.1 2.9l-2.1 1.7-.5.5-.2.2v.3c-.1.7-.1 1.4-.2 2l-.1 2.5 1.7-1.8c.2-.2.4-.5.7-.7ZM28.7 40.587l-.2.6.2-.6c-.3-.1-.5-.2-.8-.3-3.5-1.3-7.1-1.5-10.4-.6-.7.2-1.4.4-2.1.7l-2.4 1.1-.6.3 2 .7 1.8.6.3.1.3-.1c.3-.1.6-.3.9-.3.2 0 .4-.1.6-.2 2.4-.6 5-.6 7.8.3.3.1.5.2.8.3l.5.2.3-.1c.7-.2 1.5-.4 2.1-.7l2.8-1-2.9-.7c-.3-.1-.7-.2-1-.3ZM44 19.887l-1.5 1.5-.6.6c-4.1 3.9-10.7 8.1-18.1 5.3-3.5-1.3-7.1-1.5-10.4-.6-3.1.9-5.9 2.5-8.4 4.9l-1.3 1.4-.4.5.4.6c.3.4.5.7.7 1.1l.6.9.7-.9.4-.4c2.4-2.6 5-4.2 8-5 2.7-.7 5.6-.6 8.5.5 2.5.9 5.1 1.2 7.7.9 4.6-.5 9.2-3.1 12.6-6 .2-.2.4-.3.6-.5l.3-.3v-.3c0-.6.1-1.3.1-1.9l.1-2.3Z"></path>
  <path fill="#099250" d="m6 10.688-.3-.6.3.6c.6-.3 1.3-.5 1.9-.7 2.7-.7 5.6-.6 8.5.5 1.9.7 3.8 1 5.9 1 4.2 0 8.4-1.5 12.3-4.4l1.5-1.2.5-.4-.9-.7c-.3-.3-.7-.6-1.1-.8l-.6-.4-.5.4c-.2.1-.3.3-.5.4-5.3 4-10.6 5.1-15.6 3.2-3.6-1.3-7.2-1.6-10.8-.5-.3.1-.6.2-1 .3l-.2.1-.3.3c0 .1-.1.1-.2.2-.4.6-.9 1.1-1.3 1.7l-1.9 2.9 3.1-1.6c.5 0 .9-.2 1.2-.3ZM14.2 3.887l.3.1c1.3.5 3.3 1 5.8 1 2.6 0 5.1-.6 7.6-1.6l3.1-1.5-2.1-.7c-.6-.2-1.2-.4-1.9-.5h-.3l-.3.1c-.3.1-.6.3-.9.4-3 1.1-6 1.3-8.9.5l-.9-.3-.3-.1-.3.1c-.6.2-1.2.4-1.8.7l-2.3 1 2.4.7c.2-.1.5 0 .8.1Z"></path>
</svg></svg></g></g><defs><clipPath id="SvgjsClipPath1270"><rect width="1000" height="1000" x="0" y="0" rx="250" ry="250"></rect></clipPath></defs></svg>